<svg xmlns="http://www.w3.org/2000/svg" viewBox="0 0 128 128"><path fill-rule="evenodd" clip-rule="evenodd" fill="#3A4D54" d="M20 96.9v-8.1c0-1.1.7-1.9 1.8-1.9h.3c1.1 0 1.8.9 1.8 1.9v17c0 4.1-2 7.7-5.1 10-3.1 2.2-7 3.4-11 3.4-4.1 0-8-1.2-11.1-3.4-3.1-2.2-5.1-5.9-5.1-10v-17c0-1.1.7-1.9 1.8-1.9h.3c1.1 0 1.8.9 1.8 1.9v8.1c0 2.8 1.3 5.3 3.4 7 2.1 1.7 5 2.6 8 2.6s5.9-.9 8-2.6c2-1.7 3.4-4.1 3.4-7zm8.3-3.7h.3c1.1 0 1.8.9 1.8 1.9v15.2c0 1-.7 1.9-1.8 1.9h-.3c-1.1 0-1.8-.9-1.8-1.9V95.1c0-1 .7-1.9 1.8-1.9zm26.4-5.6h-9.6c-1.1 0-1.9-.8-1.9-1.8v-.3c0-1.1.8-1.8 1.9-1.8h21.8c1.1 0 1.9.8 1.9 1.8v.3c0 1.1-.8 1.8-1.9 1.8h-9.6v22.6c0 1.1-.8 1.9-1.8 1.9h-.3c-1.1 0-1.8-.8-1.8-1.9V87.6zm32.9-3.9h.3c1.1 0 1.8.8 1.8 1.8v10.8h13.9c1.1 0 1.9.8 1.9 1.8v.3c0 1.1-.8 1.8-1.9 1.8H87.9v10.8c0 1.1-.8 1.9-1.8 1.9h-.3c-1.1 0-1.8-.8-1.8-1.9V85.5c0-1 .8-1.8 1.8-1.8zm41.1 16.7c1.2 0 2.1.8 2.1 2v.2c0 1.2-.9 2.1-2.1 2.1h-15.5c-1.2 0-2.1-1-2.1-2.1v-.2c0-1.2.9-2 2.1-2h15.5zm-15.5-8.1c-1.2 0-2.1-1-2.1-2.1v-.2c0-1.2.9-2.1 2.1-2.1h15.5c1.2 0 2.1.9 2.1 2.1v.2c0 1.2-.9 2.1-2.1 2.1h-15.5z"/><path fill-rule="evenodd" clip-rule="evenodd" fill="#3A4D54" d="M73.1 15.8h9.8v9.8h-9.8V15.8zm.8.8h.8v1.4h-.8v-1.4zm0 2.4h.8v1.4h-.8v-1.4zm0 2.3h.8v1.4h-.8v-1.4zm0 2.3h.8v1.4h-.8v-1.4zm1.5-7h.8v1.4h-.8v-1.4zm0 2.4h.8v1.4h-.8v-1.4zm0 2.3h.8v1.4h-.8v-1.4zm0 2.3h.8v1.4h-.8v-1.4zm1.5-7h.8v1.4h-.8v-1.4zm0 2.4h.8v1.4h-.8v-1.4zm0 2.3h.8v1.4h-.8v-1.4zm0 2.3h.8v1.4h-.8v-1.4zm1.5-7h.8v1.4h-.8v-1.4zm0 2.4h.8v1.4h-.8v-1.4zm0 2.3h.8v1.4h-.8v-1.4zm0 2.3h.8v1.4h-.8v-1.4zm1.5-7h.8v1.4h-.8v-1.4zm0 2.4h.8v1.4h-.8v-1.4zm0 2.3h.8v1.4h-.8v-1.4zm0 2.3h.8v1.4h-.8v-1.4zm1.5-7h.8v1.4h-.8v-1.4zm0 2.4h.8v1.4h-.8v-1.4zm0 2.3h.8v1.4h-.8v-1.4zm0 2.3h.8v1.4h-.8v-1.4z"/><path fill="#00AADA" d="M89.1 50.5h5.8v5.8h-5.8z"/><path fill="#00AADA" d="M89.1 50.5h5.8v5.8h-5.8z"/><path fill="#20C2EF" d="M95.2 50.5h5.8v5.8h-5.8z"/><path fill="#20C2EF" d="M95.2 50.5h5.8v5.8h-5.8z"/><path fill="#00AADA" d="M89.1 56.3h5.8v5.8h-5.8z"/><path fill="#00AADA" d="M89.1 56.3h5.8v5.8h-5.8z"/><path fill="#20C2EF" d="M95.2 56.3h5.8v5.8h-5.8z"/><path fill="#20C2EF" d="M95.2 56.3h5.8v5.8h-5.8z"/><path fill="#00AADA" d="M83 56.3h5.8v5.8H83z"/><path fill="#00AADA" d="M83 56.3h5.8v5.8H83z"/><path fill="#00AADA" d="M77 56.3h5.8v5.8H77z"/><path fill="#00AADA" d="M77 56.3h5.8v5.8H77z"/><path fill="#D4EEF1" d="M83 50.5h5.8v5.8H83z"/><path fill="#D4EEF1" d="M83 50.5h5.8v5.8H83z"/><path fill="#00AADA" d="M77 50.5h5.8v5.8H77z"/><path fill="#00AADA" d="M77 50.5h5.8v5.8H77z"/><path fill="#00AADA" d="M70.9 56.3h5.8v5.8h-5.8z"/><path fill="#00AADA" d="M70.9 56.3h5.8v5.8h-5.8z"/><path fill="#00AADA" d="M83 44.7h5.8v5.8H83z"/><path fill="#00AADA" d="M83 44.7h5.8v5.8H83z"/><path fill="#D4EEF1" d="M77 44.7h5.8v5.8H77z"/><path fill="#D4EEF1" d="M77 44.7h5.8v5.8H77z"/><path fill="#00AADA" d="M70.9 50.5h5.8v5.8h-5.8z"/><path fill="#00AADA" d="M70.9 50.5h5.8v5.8h-5.8z"/><path fill="#00AADA" d="M70.9 44.7h5.8v5.8h-5.8z"/><path fill="#00AADA" d="M70.9 44.7h5.8v5.8h-5.8z"/><path fill="#D4EEF1" d="M64.8 44.7h5.8v5.8h-5.8z"/><path fill="#D4EEF1" d="M64.8 44.7h5.8v5.8h-5.8z"/><path fill="#D4EEF1" d="M64.8 50.5h5.8v5.8h-5.8z"/><path fill="#D4EEF1" d="M64.8 50.5h5.8v5.8h-5.8z"/><path fill="#00AADA" d="M64.8 56.3h5.8v5.8h-5.8z"/><path fill="#00AADA" d="M64.8 56.3h5.8v5.8h-5.8z"/><path fill-rule="evenodd" clip-rule="evenodd" fill="#3A4D54" d="M104.5 30.6c.8-5.9-3.6-10.5-9.4-10.5-5.5 0-10.4 4-10.4 9.1 0 .5 0 1 .1 1.4-9.4-1.3-18.4-4.9-24.3-11.8-1 1.7-1.6 3.8-1.6 5.8 0 3.8 1.9 7.2 4.9 9.1-1.8-.1-3.5-.5-5-1.4v.1c0 5.3 3.8 9.8 8.8 10.8-.9.2-1.9.4-2.9.4-.7 0-1.4-.1-2.1-.2 1.4 4.4 5.5 7.5 10.2 7.6-3.8 3-8.5 4.7-13.7 4.7-.9 0-1.8-.1-2.6-.1 4.9 3.1 10.7 5 16.9 5 20.3 0 31.4-16.8 31.4-31.4 0-.5 0-1-.1-1.4 2.2-1.6 4-3.5 5.5-5.7-2 .9-4.1 1.5-6.3 1.7 2.3-1.4 4-3.5 4.8-6.1-2.1 1.3-4.5 2.2-7 2.7z"/></svg>
